<svg xmlns="http://www.w3.org/2000/svg" width="730" height="294" viewBox="0 0 730 294"><g transform="translate(-15554 -4908.5)"><g transform="translate(15554 4976)" fill="none" stroke="#000" stroke-linecap="round" stroke-linejoin="round" stroke-width="5"><rect width="160" height="157" rx="20" stroke="none"/><rect x="2.5" y="2.5" width="155" height="152" rx="17.5" fill="none"/></g><g transform="translate(16124 4976)" fill="none" stroke="#000" stroke-linecap="round" stroke-linejoin="round" stroke-width="5"><rect width="160" height="157" rx="20" stroke="none"/><rect x="2.5" y="2.5" width="155" height="152" rx="17.5" fill="none"/></g><g transform="translate(15928 4976)" fill="none" stroke="#000" stroke-linecap="round" stroke-linejoin="round" stroke-width="5"><rect width="160" height="157" rx="20" stroke="none"/><rect x="2.5" y="2.5" width="155" height="152" rx="17.5" fill="none"/></g><g transform="translate(15741 4976)" fill="none" stroke="#000" stroke-linecap="round" stroke-linejoin="round" stroke-width="5"><rect width="160" height="157" rx="20" stroke="none"/><rect x="2.5" y="2.5" width="155" height="152" rx="17.5" fill="none"/></g><path d="M10.629,4.279l1.239-1.239a1.334,1.334,0,0,1,1.892,0L24.607,13.882a1.334,1.334,0,0,1,0,1.892L13.76,26.621a1.334,1.334,0,0,1-1.892,0l-1.239-1.239a1.341,1.341,0,0,1,.022-1.914l6.724-6.406H1.339A1.336,1.336,0,0,1,0,15.723V13.938A1.336,1.336,0,0,1,1.339,12.6H17.375L10.652,6.193A1.331,1.331,0,0,1,10.629,4.279Z" transform="translate(15716 5039.669)"/><path d="M10.629,4.279l1.239-1.239a1.334,1.334,0,0,1,1.892,0L24.607,13.882a1.334,1.334,0,0,1,0,1.892L13.76,26.621a1.334,1.334,0,0,1-1.892,0l-1.239-1.239a1.341,1.341,0,0,1,.022-1.914l6.724-6.406H1.339A1.336,1.336,0,0,1,0,15.723V13.938A1.336,1.336,0,0,1,1.339,12.6H17.375L10.652,6.193A1.331,1.331,0,0,1,10.629,4.279Z" transform="translate(16094 5039.669)"/><path d="M10.629,4.279l1.239-1.239a1.334,1.334,0,0,1,1.892,0L24.607,13.882a1.334,1.334,0,0,1,0,1.892L13.76,26.621a1.334,1.334,0,0,1-1.892,0l-1.239-1.239a1.341,1.341,0,0,1,.022-1.914l6.724-6.406H1.339A1.336,1.336,0,0,1,0,15.723V13.938A1.336,1.336,0,0,1,1.339,12.6H17.375L10.652,6.193A1.331,1.331,0,0,1,10.629,4.279Z" transform="translate(15903 5039.669)"/><path d="M8.725,3.987,9.741,2.97a1.1,1.1,0,0,1,1.553,0l8.9,8.9a1.1,1.1,0,0,1,0,1.553l-8.9,8.9a1.1,1.1,0,0,1-1.553,0L8.725,21.308a1.1,1.1,0,0,1,.018-1.571l5.519-5.258H1.1A1.1,1.1,0,0,1,0,13.38V11.914a1.1,1.1,0,0,1,1.1-1.1H14.262L8.743,5.558A1.092,1.092,0,0,1,8.725,3.987Z" transform="translate(15619.669 5155) rotate(-90)"/><path d="M8.725,3.987,9.741,2.97a1.1,1.1,0,0,1,1.553,0l8.9,8.9a1.1,1.1,0,0,1,0,1.553l-8.9,8.9a1.1,1.1,0,0,1-1.553,0L8.725,21.308a1.1,1.1,0,0,1,.018-1.571l5.519-5.258H1.1A1.1,1.1,0,0,1,0,13.38V11.914a1.1,1.1,0,0,1,1.1-1.1H14.262L8.743,5.558A1.092,1.092,0,0,1,8.725,3.987Z" transform="translate(15833.647 4955.48) rotate(90)"/><path d="M8.725,3.987,9.741,2.97a1.1,1.1,0,0,1,1.553,0l8.9,8.9a1.1,1.1,0,0,1,0,1.553l-8.9,8.9a1.1,1.1,0,0,1-1.553,0L8.725,21.308a1.1,1.1,0,0,1,.018-1.571l5.519-5.258H1.1A1.1,1.1,0,0,1,0,13.38V11.914a1.1,1.1,0,0,1,1.1-1.1H14.262L8.743,5.558A1.092,1.092,0,0,1,8.725,3.987Z" transform="translate(16023.647 4955.48) rotate(90)"/><line y1="9" x2="3" transform="translate(15823.5 4943.5)" fill="none" stroke="#000" stroke-linecap="round" stroke-width="4"/><line y1="8" x2="7" transform="translate(15831.5 4927.5)" fill="none" stroke="#000" stroke-linecap="round" stroke-width="4"/><line y1="6" x2="8" transform="translate(15846.5 4915.5)" fill="none" stroke="#000" stroke-linecap="round" stroke-width="4"/><line y1="1" x2="11" transform="translate(15864.5 4911.5)" fill="none" stroke="#000" stroke-linecap="round" stroke-width="4"/><line x2="11" transform="translate(15884.5 4910.5)" fill="none" stroke="#000" stroke-linecap="round" stroke-width="4"/><line x2="11" transform="translate(15905.5 4910.5)" fill="none" stroke="#000" stroke-linecap="round" stroke-width="4"/><line x2="11" transform="translate(15926.5 4910.5)" fill="none" stroke="#000" stroke-linecap="round" stroke-width="4"/><line x2="11" transform="translate(15946.5 4910.5)" fill="none" stroke="#000" stroke-linecap="round" stroke-width="4"/><line x2="11" transform="translate(15946.5 4910.5)" fill="none" stroke="#000" stroke-linecap="round" stroke-width="4"/><line x2="11" transform="translate(15966.5 4910.5)" fill="none" stroke="#000" stroke-linecap="round" stroke-width="4"/><line x2="11" transform="translate(15987.5 4910.5)" fill="none" stroke="#000" stroke-linecap="round" stroke-width="4"/><line x2="11" transform="translate(16008 4910.5)" fill="none" stroke="#000" stroke-linecap="round" stroke-width="4"/><line x2="11" transform="translate(16028 4910.5)" fill="none" stroke="#000" stroke-linecap="round" stroke-width="4"/><line x2="11" transform="translate(16049 4910.5)" fill="none" stroke="#000" stroke-linecap="round" stroke-width="4"/><line x2="11" transform="translate(16069 4910.5)" fill="none" stroke="#000" stroke-linecap="round" stroke-width="4"/><line x2="11" transform="translate(16089 4910.5)" fill="none" stroke="#000" stroke-linecap="round" stroke-width="4"/><line x2="11" transform="translate(16110 4910.5)" fill="none" stroke="#000" stroke-linecap="round" stroke-width="4"/><line x2="11" transform="translate(16130 4910.5)" fill="none" stroke="#000" stroke-linecap="round" stroke-width="4"/><line x2="11.5" y2="2" transform="translate(16150 4911.5)" fill="none" stroke="#000" stroke-linecap="round" stroke-width="4"/><line x2="9.5" y2="5" transform="translate(16170 4917.5)" fill="none" stroke="#000" stroke-linecap="round" stroke-width="4"/><line x2="6.5" y2="8" transform="translate(16185 4929.5)" fill="none" stroke="#000" stroke-linecap="round" stroke-width="4"/><line x2="2.5" y2="10" transform="translate(16196 4947.5)" fill="none" stroke="#000" stroke-linecap="round" stroke-width="4"/><line y2="10" transform="translate(16200 4967)" fill="none" stroke="#000" stroke-linecap="round" stroke-width="4"/><line y2="12" transform="translate(16167 4964)" fill="none" stroke="#000" stroke-linecap="round" stroke-width="4"/><line x2="8" y2="7" transform="translate(16155.5 4947.5)" fill="none" stroke="#000" stroke-linecap="round" stroke-width="4"/><line x2="11" transform="translate(16135 4944.5)" fill="none" stroke="#000" stroke-linecap="round" stroke-width="4"/><line x2="11" transform="translate(16114 4944.5)" fill="none" stroke="#000" stroke-linecap="round" stroke-width="4"/><line x2="11" transform="translate(16094 4944.5)" fill="none" stroke="#000" stroke-linecap="round" stroke-width="4"/><line x2="11" transform="translate(16073 4943.5)" fill="none" stroke="#000" stroke-linecap="round" stroke-width="4"/><line x2="11" transform="translate(16053 4943.5)" fill="none" stroke="#000" stroke-linecap="round" stroke-width="4"/><line x2="11" transform="translate(16033 4943.5)" fill="none" stroke="#000" stroke-linecap="round" stroke-width="4"/><line y1="6" x2="8" transform="translate(16014.5 4945.5)" fill="none" stroke="#000" stroke-linecap="round" stroke-width="4"/><line x2="3.684" y2="8" transform="translate(15634.816 5158.5)" fill="none" stroke="#000" stroke-linecap="round" stroke-width="4"/><line x2="6.684" y2="8" transform="translate(15642.816 5173.5)" fill="none" stroke="#000" stroke-linecap="round" stroke-width="4"/><line x2="9.684" y2="6" transform="translate(15656.816 5187.5)" fill="none" stroke="#000" stroke-linecap="round" stroke-width="4"/><line x2="10.684" y2="2" transform="translate(15674.816 5197.5)" fill="none" stroke="#000" stroke-linecap="round" stroke-width="4"/><line x2="12.684" transform="translate(15693.816 5200.5)" fill="none" stroke="#000" stroke-linecap="round" stroke-width="4"/><line x2="12.684" transform="translate(15715.816 5200.5)" fill="none" stroke="#000" stroke-linecap="round" stroke-width="4"/><line x2="12.684" transform="translate(15736.658 5200.5)" fill="none" stroke="#000" stroke-linecap="round" stroke-width="4"/><line x2="12.684" transform="translate(15756.658 5200.5)" fill="none" stroke="#000" stroke-linecap="round" stroke-width="4"/><line x2="12.684" transform="translate(15776.658 5200.5)" fill="none" stroke="#000" stroke-linecap="round" stroke-width="4"/><line x2="12.684" transform="translate(15796.658 5200.5)" fill="none" stroke="#000" stroke-linecap="round" stroke-width="4"/><line x2="12.684" transform="translate(15816.658 5200.5)" fill="none" stroke="#000" stroke-linecap="round" stroke-width="4"/><line x2="12.684" transform="translate(15816.658 5200.5)" fill="none" stroke="#000" stroke-linecap="round" stroke-width="4"/><line x2="12.684" transform="translate(15837.658 5200.5)" fill="none" stroke="#000" stroke-linecap="round" stroke-width="4"/><line x2="12.684" transform="translate(15858.658 5200.5)" fill="none" stroke="#000" stroke-linecap="round" stroke-width="4"/><line x2="12.684" transform="translate(15878.658 5200.5)" fill="none" stroke="#000" stroke-linecap="round" stroke-width="4"/><line x2="12.684" transform="translate(15899.658 5200.5)" fill="none" stroke="#000" stroke-linecap="round" stroke-width="4"/><line x2="12.684" transform="translate(15921.658 5200.5)" fill="none" stroke="#000" stroke-linecap="round" stroke-width="4"/><line x2="12.684" transform="translate(15941.658 5200.5)" fill="none" stroke="#000" stroke-linecap="round" stroke-width="4"/><line x2="12.684" transform="translate(15962.658 5200.5)" fill="none" stroke="#000" stroke-linecap="round" stroke-width="4"/><line x2="12.684" transform="translate(15981.658 5200.5)" fill="none" stroke="#000" stroke-linecap="round" stroke-width="4"/><line x2="12.684" transform="translate(16001.658 5200.5)" fill="none" stroke="#000" stroke-linecap="round" stroke-width="4"/><line x2="12.684" transform="translate(16021.658 5200.5)" fill="none" stroke="#000" stroke-linecap="round" stroke-width="4"/><line x2="12.684" transform="translate(16043.658 5200.5)" fill="none" stroke="#000" stroke-linecap="round" stroke-width="4"/><line x2="12.684" transform="translate(16063.658 5200.5)" fill="none" stroke="#000" stroke-linecap="round" stroke-width="4"/><line x2="12.684" transform="translate(16084.658 5200.5)" fill="none" stroke="#000" stroke-linecap="round" stroke-width="4"/><line x2="12.684" transform="translate(16105.658 5200.5)" fill="none" stroke="#000" stroke-linecap="round" stroke-width="4"/><line x2="12.684" transform="translate(16126.658 5200.5)" fill="none" stroke="#000" stroke-linecap="round" stroke-width="4"/><line y1="2" x2="11.842" transform="translate(16146.658 5197.5)" fill="none" stroke="#000" stroke-linecap="round" stroke-width="4"/><line y1="6" x2="11.842" transform="translate(16164.658 5188.5)" fill="none" stroke="#000" stroke-linecap="round" stroke-width="4"/><line y1="8" x2="7.842" transform="translate(16181.658 5175.5)" fill="none" stroke="#000" stroke-linecap="round" stroke-width="4"/><line y1="11" x2="4.842" transform="translate(16193.658 5157.5)" fill="none" stroke="#000" stroke-linecap="round" stroke-width="4"/><line y1="13" transform="translate(16199.5 5134.5)" fill="none" stroke="#000" stroke-linecap="round" stroke-width="4"/><text transform="translate(15570 5030)" fill="#1f1f1f" font-size="18" font-family="OpenSans-Bold, Open Sans" font-weight="700" letter-spacing="-0.02em"><tspan x="-51.624" y="19">Understand </tspan><tspan x="-61.368" y="43">context of use</tspan></text><text transform="translate(15759 5030)" fill="#1f1f1f" font-size="18" font-family="OpenSans-Bold, Open Sans" font-weight="700" letter-spacing="-0.02em"><tspan x="-52.099" y="19">Specify user </tspan><tspan x="-59.275" y="43">requirements</tspan></text><text transform="translate(15944 5030)" fill="#1f1f1f" font-size="18" font-family="OpenSans-Bold, Open Sans" font-weight="700" letter-spacing="-0.02em"><tspan x="-29.299" y="19">Design </tspan><tspan x="-39.882" y="43">solutions</tspan></text><text transform="translate(16141 5018)" fill="#1f1f1f" font-size="18" font-family="OpenSans-Bold, Open Sans" font-weight="700" letter-spacing="-0.02em"><tspan x="-37.658" y="19">Evaluate </tspan><tspan x="-31.919" y="43">against </tspan><tspan x="-59.275" y="67">requirements</tspan></text></g></svg>